{
	"accessors": [
		{
			"bufferView": 1,
			"componentType": 5126,
			"count": 288,
			"max": [
				21.011165618896484, 2.0349905490875244, 12.526101112365723
			],
			"min": [-20.93195915222168, -2.0349905490875244, 0.0],
			"type": "VEC3"
		},
		{
			"bufferView": 1,
			"byteOffset": 3456,
			"componentType": 5126,
			"count": 288,
			"max": [1.0, 1.0, 1.0],
			"min": [-1.0, -1.0, -1.0],
			"type": "VEC3"
		},
		{
			"bufferView": 0,
			"componentType": 5125,
			"count": 594,
			"type": "SCALAR"
		}
	],
	"asset": {
		"extras": {
			"author": "Yobibren (https://sketchfab.com/brendonburlew)",
			"license": "CC-BY-4.0 (http://creativecommons.org/licenses/by/4.0/)",
			"source": "https://sketchfab.com/3d-models/simple-maze-2bd7e0ffbaad44c08ef9281fd734289b",
			"title": "Simple Maze"
		},
		"generator": "Sketchfab-12.66.0",
		"version": "2.0"
	},
	"bufferViews": [
		{
			"buffer": 0,
			"byteLength": 2376,
			"name": "floatBufferViews",
			"target": 34963
		},
		{
			"buffer": 0,
			"byteLength": 6912,
			"byteOffset": 2376,
			"byteStride": 12,
			"name": "floatBufferViews",
			"target": 34962
		}
	],
	"buffers": [
		{
			"byteLength": 9288,
			"uri": "maze.bin"
		}
	],
	"materials": [
		{
			"doubleSided": true,
			"name": "Scene_-_Root",
			"pbrMetallicRoughness": {
				"metallicFactor": 0.0,
				"roughnessFactor": 0.6
			}
		}
	],
	"meshes": [
		{
			"name": "Plane__0",
			"primitives": [
				{
					"attributes": {
						"NORMAL": 1,
						"POSITION": 0
					},
					"indices": 2,
					"material": 0,
					"mode": 4
				}
			]
		}
	],
	"nodes": [
		{
			"children": [1],
			"matrix": [
				1.0, 0.0, 0.0, 0.0, 0.0, 2.220446049250313e-16, -1.0, 0.0,
				0.0, 1.0, 2.220446049250313e-16, 0.0, 0.0, 0.0, 0.0, 1.0
			],
			"name": "Sketchfab_model"
		},
		{
			"children": [2],
			"matrix": [
				1.0, 0.0, 0.0, 0.0, 0.0, 0.0, 1.0, 0.0, 0.0, -1.0, 0.0, 0.0,
				0.0, 0.0, 0.0, 1.0
			],
			"name": "180fe74813ea45f098efb20abb4be19d.fbx"
		},
		{
			"children": [3],
			"name": "RootNode"
		},
		{
			"children": [4],
			"matrix": [
				24.324344635009766, 0.0, 0.0, 0.0, 0.0, -4.076288027122808e-5,
				-250.20077514648108, 0.0, 0.0, 24.324344635009446,
				-3.9629387536968405e-6, 0.0, 0.0, 0.0, 0.0, 1.0
			],
			"name": "Plane"
		},
		{
			"mesh": 0,
			"name": "Plane__0"
		}
	],
	"scene": 0,
	"scenes": [
		{
			"name": "Sketchfab_Scene",
			"nodes": [0]
		}
	]
}
